' Copyright (C) 2019 - present Juergen Zimmermann, Hochschule Karlsruhe
'
' This program is free software: you can redistribute it and/or modify
' it under the terms of the GNU General Public License as published by
' the Free Software Foundation, either version 3 of the License, or
' (at your option) any later version.
'
' This program is distributed in the hope that it will be useful,
' but WITHOUT ANY WARRANTY; without even the implied warranty of
' MERCHANTABILITY or FITNESS FOR A PARTICULAR PURPOSE.  See the
' GNU General Public License for more details.
'
' You should have received a copy of the GNU General Public License
' along with this program.  If not, see <https://www.gnu.org/licenses/>.

' Preview durch <Alt>d

@startuml Anwendungskern

interface Promise<T>
interface Readonly<T> <<type>>

package generated.prisma {
  class Prisma
  note right: + bedeutet innere Klasse

  class AppProfileGetPayload<T>
  Prisma +-- AppProfileGetPayload
}

package config {
    object prismaClient <<singleton>>
}

package reclaim {
  package service #DDDDDD {
    exception NotFoundError

    object buildWhere <<singleton>>
    class Slice

    class AppProfileService << control >> {
      + async findById(id: number): Promise<Readonly<AppProfileGetPayload<>>>
      + async find(suchparameter?: Record<string, any>): Promise<Readonly<Slice<AppProfileGetPayload>>>
    }

    AppProfileService ..> buildWhere

    AppProfileService .up.> NotFoundError

    AppProfileService .up.> Promise
    AppProfileService .up.> Readonly
    AppProfileService ..> AppProfileGetPayload
    AppProfileService ..> Slice

    AppProfileService ..> prismaClient

    Promise .[hidden]right.> Readonly
  }
}

hide empty members

footer (c) Jürgen Zimmermann

@enduml
